<mxfile host="app.diagrams.net" agent="Mozilla/5.0 (Macintosh; Intel Mac OS X 10_15_7) AppleWebKit/537.36 (KHTML, like Gecko) Chrome/134.0.0.0 Safari/537.36" version="26.1.1">
  <diagram name="Страница — 1" id="h39BrPKxuDMGDi6YM3mU">
    <mxGraphModel dx="2417" dy="852" grid="1" gridSize="10" guides="1" tooltips="1" connect="1" arrows="1" fold="1" page="1" pageScale="1" pageWidth="827" pageHeight="1169" math="0" shadow="0">
      <root>
        <mxCell id="0" />
        <mxCell id="1" parent="0" />
        <mxCell id="cseGOAcBCH44NVd2no2V-6" value="" style="edgeStyle=orthogonalEdgeStyle;rounded=0;orthogonalLoop=1;jettySize=auto;html=1;" parent="1" source="cseGOAcBCH44NVd2no2V-1" target="cseGOAcBCH44NVd2no2V-4" edge="1">
          <mxGeometry relative="1" as="geometry" />
        </mxCell>
        <mxCell id="cseGOAcBCH44NVd2no2V-7" style="edgeStyle=orthogonalEdgeStyle;rounded=0;orthogonalLoop=1;jettySize=auto;html=1;exitX=0.5;exitY=1;exitDx=0;exitDy=0;entryX=0.5;entryY=0;entryDx=0;entryDy=0;" parent="1" source="cseGOAcBCH44NVd2no2V-1" target="cseGOAcBCH44NVd2no2V-3" edge="1">
          <mxGeometry relative="1" as="geometry" />
        </mxCell>
        <mxCell id="cseGOAcBCH44NVd2no2V-8" style="edgeStyle=orthogonalEdgeStyle;rounded=0;orthogonalLoop=1;jettySize=auto;html=1;exitX=0.5;exitY=1;exitDx=0;exitDy=0;entryX=0.5;entryY=0;entryDx=0;entryDy=0;" parent="1" source="cseGOAcBCH44NVd2no2V-1" target="cseGOAcBCH44NVd2no2V-5" edge="1">
          <mxGeometry relative="1" as="geometry" />
        </mxCell>
        <mxCell id="cseGOAcBCH44NVd2no2V-1" value="В 862 годы славянские племена призывают варягов, чтобы те княжили. На зов откликнулись 3 брата" style="rounded=1;whiteSpace=wrap;html=1;" parent="1" vertex="1">
          <mxGeometry x="325" y="160" width="260" height="60" as="geometry" />
        </mxCell>
        <mxCell id="cseGOAcBCH44NVd2no2V-12" style="edgeStyle=orthogonalEdgeStyle;rounded=0;orthogonalLoop=1;jettySize=auto;html=1;exitX=0.5;exitY=1;exitDx=0;exitDy=0;entryX=0.5;entryY=0;entryDx=0;entryDy=0;" parent="1" source="cseGOAcBCH44NVd2no2V-3" target="cseGOAcBCH44NVd2no2V-11" edge="1">
          <mxGeometry relative="1" as="geometry" />
        </mxCell>
        <mxCell id="cseGOAcBCH44NVd2no2V-3" value="Рюрик&lt;div&gt;Новгородский престол&lt;/div&gt;" style="rounded=1;whiteSpace=wrap;html=1;" parent="1" vertex="1">
          <mxGeometry x="205" y="280" width="140" height="60" as="geometry" />
        </mxCell>
        <mxCell id="cseGOAcBCH44NVd2no2V-4" value="Синеус" style="rounded=1;whiteSpace=wrap;html=1;" parent="1" vertex="1">
          <mxGeometry x="385" y="280" width="140" height="60" as="geometry" />
        </mxCell>
        <mxCell id="cseGOAcBCH44NVd2no2V-5" value="Трувор" style="rounded=1;whiteSpace=wrap;html=1;" parent="1" vertex="1">
          <mxGeometry x="555" y="280" width="140" height="60" as="geometry" />
        </mxCell>
        <mxCell id="cseGOAcBCH44NVd2no2V-10" style="edgeStyle=orthogonalEdgeStyle;rounded=0;orthogonalLoop=1;jettySize=auto;html=1;" parent="1" source="cseGOAcBCH44NVd2no2V-9" target="cseGOAcBCH44NVd2no2V-3" edge="1">
          <mxGeometry relative="1" as="geometry" />
        </mxCell>
        <mxCell id="cseGOAcBCH44NVd2no2V-9" value="Рюрик занял новгородский престол и отправил своих дружинников на юг (на Константинополь).&lt;div&gt;По пути они захватили Киев и установили полный контроль над торговым путём &quot;из варяг в греки&quot; и отказались платить дань Казанскому Каганату. Так возникла два главных центра Древней Руси - Новгород на севере и Киев на юге.&lt;/div&gt;" style="rounded=1;whiteSpace=wrap;html=1;" parent="1" vertex="1">
          <mxGeometry x="-180" y="240" width="290" height="140" as="geometry" />
        </mxCell>
        <mxCell id="cseGOAcBCH44NVd2no2V-17" style="edgeStyle=orthogonalEdgeStyle;rounded=0;orthogonalLoop=1;jettySize=auto;html=1;exitX=1;exitY=0.5;exitDx=0;exitDy=0;" parent="1" source="cseGOAcBCH44NVd2no2V-11" target="cseGOAcBCH44NVd2no2V-16" edge="1">
          <mxGeometry relative="1" as="geometry" />
        </mxCell>
        <mxCell id="cseGOAcBCH44NVd2no2V-11" value="Олег, родич Рюрика" style="rounded=1;whiteSpace=wrap;html=1;" parent="1" vertex="1">
          <mxGeometry x="205" y="500" width="140" height="60" as="geometry" />
        </mxCell>
        <mxCell id="cseGOAcBCH44NVd2no2V-15" style="edgeStyle=orthogonalEdgeStyle;rounded=0;orthogonalLoop=1;jettySize=auto;html=1;exitX=1;exitY=0.5;exitDx=0;exitDy=0;" parent="1" source="cseGOAcBCH44NVd2no2V-13" target="cseGOAcBCH44NVd2no2V-11" edge="1">
          <mxGeometry relative="1" as="geometry" />
        </mxCell>
        <mxCell id="cseGOAcBCH44NVd2no2V-13" value="Спустя несколько лет после смерти Рюрика отправился походом на юг, захватил Киев и сделал его своей столицей. С объединением Киева и Новгорода возникло Древнерусское государство.&lt;div&gt;Его прозвали Вещим - якобы из-за его способности предвидеть будущее.&lt;/div&gt;&lt;div&gt;Также Олег осуществил два похода на Византию - в 907 году и в 911 году.&lt;/div&gt;&lt;div&gt;Именно в первом походе Олег одержал блистательную победу и прибил свой щит на врата Константинополя и заключил с Византией выгодный договор&lt;/div&gt;&lt;div&gt;&lt;p style=&quot;margin: 0px; font-style: normal; font-variant-caps: normal; font-stretch: normal; font-size: 13px; line-height: normal; font-family: &amp;quot;Helvetica Neue&amp;quot;; font-size-adjust: none; font-kerning: auto; font-variant-alternates: normal; font-variant-ligatures: normal; font-variant-numeric: normal; font-variant-east-asian: normal; font-variant-position: normal; font-variant-emoji: normal; font-feature-settings: normal; font-optical-sizing: auto; font-variation-settings: normal;&quot;&gt;По легенде, волхвы предсказали Олегу, что он умрет от своего коня. Князь велел убить животное, а спустя несколько лет вспомнил о предсказании, захотел взглянуть на кости погибшего коня и посмеяться над глупостью волхвов. Но когда он поставил ногу на конский череп, оттуда выползла ядовитая змея и ужалила князя. Скончался он в 912 году&lt;/p&gt;&lt;/div&gt;" style="rounded=1;whiteSpace=wrap;html=1;" parent="1" vertex="1">
          <mxGeometry x="-200" y="420" width="310" height="310" as="geometry" />
        </mxCell>
        <mxCell id="cseGOAcBCH44NVd2no2V-22" style="edgeStyle=orthogonalEdgeStyle;rounded=0;orthogonalLoop=1;jettySize=auto;html=1;exitX=0.5;exitY=1;exitDx=0;exitDy=0;entryX=0.5;entryY=0;entryDx=0;entryDy=0;" parent="1" source="cseGOAcBCH44NVd2no2V-16" target="cseGOAcBCH44NVd2no2V-21" edge="1">
          <mxGeometry relative="1" as="geometry" />
        </mxCell>
        <mxCell id="cseGOAcBCH44NVd2no2V-16" value="Игорь, сын Рюрика" style="rounded=1;whiteSpace=wrap;html=1;" parent="1" vertex="1">
          <mxGeometry x="440" y="500" width="140" height="60" as="geometry" />
        </mxCell>
        <mxCell id="cseGOAcBCH44NVd2no2V-19" style="edgeStyle=orthogonalEdgeStyle;rounded=0;orthogonalLoop=1;jettySize=auto;html=1;exitX=0;exitY=0.5;exitDx=0;exitDy=0;entryX=1;entryY=0.5;entryDx=0;entryDy=0;" parent="1" source="cseGOAcBCH44NVd2no2V-18" target="cseGOAcBCH44NVd2no2V-16" edge="1">
          <mxGeometry relative="1" as="geometry" />
        </mxCell>
        <mxCell id="cseGOAcBCH44NVd2no2V-18" value="&lt;p style=&quot;margin: 0px; font-style: normal; font-variant-caps: normal; font-stretch: normal; font-size: 13px; line-height: normal; font-family: &amp;quot;Helvetica Neue&amp;quot;; font-size-adjust: none; font-kerning: auto; font-variant-alternates: normal; font-variant-ligatures: normal; font-variant-numeric: normal; font-variant-east-asian: normal; font-variant-position: normal; font-variant-emoji: normal; font-feature-settings: normal; font-optical-sizing: auto; font-variation-settings: normal;&quot;&gt;Игорь продолжал расширять влияние Киева на земли других славянских племен, приводя их к покорности и облагая данью.&lt;/p&gt;&lt;br/&gt;&lt;p style=&quot;margin: 0px; font-style: normal; font-variant-caps: normal; font-stretch: normal; font-size: 13px; line-height: normal; font-family: &amp;quot;Helvetica Neue&amp;quot;; font-size-adjust: none; font-kerning: auto; font-variant-alternates: normal; font-variant-ligatures: normal; font-variant-numeric: normal; font-variant-east-asian: normal; font-variant-position: normal; font-variant-emoji: normal; font-feature-settings: normal; font-optical-sizing: auto; font-variation-settings: normal;&quot;&gt;В 945&amp;nbsp;году во время сбора дани князь был убит в землях древлян. Сыну Игоря, Святославу, в то&amp;nbsp;время едва исполнилось 3&amp;nbsp;года.&lt;/p&gt;" style="rounded=1;whiteSpace=wrap;html=1;" parent="1" vertex="1">
          <mxGeometry x="670" y="390" width="310" height="130" as="geometry" />
        </mxCell>
        <mxCell id="cseGOAcBCH44NVd2no2V-26" style="edgeStyle=orthogonalEdgeStyle;rounded=0;orthogonalLoop=1;jettySize=auto;html=1;exitX=0.5;exitY=1;exitDx=0;exitDy=0;" parent="1" source="cseGOAcBCH44NVd2no2V-21" target="cseGOAcBCH44NVd2no2V-25" edge="1">
          <mxGeometry relative="1" as="geometry" />
        </mxCell>
        <mxCell id="cseGOAcBCH44NVd2no2V-21" value="Княгиня Ольга&lt;div&gt;(Жена Игоря)&lt;/div&gt;" style="rounded=1;whiteSpace=wrap;html=1;" parent="1" vertex="1">
          <mxGeometry x="440" y="680" width="140" height="60" as="geometry" />
        </mxCell>
        <mxCell id="cseGOAcBCH44NVd2no2V-24" style="edgeStyle=orthogonalEdgeStyle;rounded=0;orthogonalLoop=1;jettySize=auto;html=1;entryX=1;entryY=0.5;entryDx=0;entryDy=0;" parent="1" source="cseGOAcBCH44NVd2no2V-23" target="cseGOAcBCH44NVd2no2V-21" edge="1">
          <mxGeometry relative="1" as="geometry" />
        </mxCell>
        <mxCell id="cseGOAcBCH44NVd2no2V-23" value="&lt;p style=&quot;margin: 0px; font-style: normal; font-variant-caps: normal; font-stretch: normal; font-size: 13px; line-height: normal; font-family: &amp;quot;Helvetica Neue&amp;quot;; font-size-adjust: none; font-kerning: auto; font-variant-alternates: normal; font-variant-ligatures: normal; font-variant-numeric: normal; font-variant-east-asian: normal; font-variant-position: normal; font-variant-emoji: normal; font-feature-settings: normal; font-optical-sizing: auto; font-variation-settings: normal;&quot;&gt;Княгиня отомстила древлянам и захватила город &quot;Искоростень&quot; хитростью (запустила на город птиц прикрепив к их лапам горящую паклю)&lt;/p&gt;&lt;p style=&quot;margin: 0px; font-style: normal; font-variant-caps: normal; font-stretch: normal; font-size: 13px; line-height: normal; font-family: &amp;quot;Helvetica Neue&amp;quot;; font-size-adjust: none; font-kerning: auto; font-variant-alternates: normal; font-variant-ligatures: normal; font-variant-numeric: normal; font-variant-east-asian: normal; font-variant-position: normal; font-variant-emoji: normal; font-feature-settings: normal; font-optical-sizing: auto; font-variation-settings: normal;&quot;&gt;В 957 году княгиня принимает православие&lt;/p&gt;" style="rounded=1;whiteSpace=wrap;html=1;" parent="1" vertex="1">
          <mxGeometry x="660" y="640" width="310" height="130" as="geometry" />
        </mxCell>
        <mxCell id="EYzyI61vK4qVUXCELYnc-4" style="edgeStyle=orthogonalEdgeStyle;rounded=0;orthogonalLoop=1;jettySize=auto;html=1;exitX=0.5;exitY=1;exitDx=0;exitDy=0;entryX=0.5;entryY=0;entryDx=0;entryDy=0;" edge="1" parent="1" source="cseGOAcBCH44NVd2no2V-25" target="EYzyI61vK4qVUXCELYnc-1">
          <mxGeometry relative="1" as="geometry" />
        </mxCell>
        <mxCell id="EYzyI61vK4qVUXCELYnc-5" style="edgeStyle=orthogonalEdgeStyle;rounded=0;orthogonalLoop=1;jettySize=auto;html=1;exitX=0.5;exitY=1;exitDx=0;exitDy=0;entryX=0.5;entryY=0;entryDx=0;entryDy=0;" edge="1" parent="1" source="cseGOAcBCH44NVd2no2V-25" target="EYzyI61vK4qVUXCELYnc-2">
          <mxGeometry relative="1" as="geometry">
            <Array as="points">
              <mxPoint x="510" y="1090" />
              <mxPoint x="270" y="1090" />
            </Array>
          </mxGeometry>
        </mxCell>
        <mxCell id="EYzyI61vK4qVUXCELYnc-6" style="edgeStyle=orthogonalEdgeStyle;rounded=0;orthogonalLoop=1;jettySize=auto;html=1;exitX=0.5;exitY=1;exitDx=0;exitDy=0;" edge="1" parent="1" source="cseGOAcBCH44NVd2no2V-25" target="EYzyI61vK4qVUXCELYnc-3">
          <mxGeometry relative="1" as="geometry">
            <Array as="points">
              <mxPoint x="510" y="1090" />
              <mxPoint x="750" y="1090" />
            </Array>
          </mxGeometry>
        </mxCell>
        <mxCell id="cseGOAcBCH44NVd2no2V-25" value="Святослав, сын Игоря" style="rounded=1;whiteSpace=wrap;html=1;" parent="1" vertex="1">
          <mxGeometry x="440" y="840" width="140" height="60" as="geometry" />
        </mxCell>
        <mxCell id="cseGOAcBCH44NVd2no2V-28" style="edgeStyle=orthogonalEdgeStyle;rounded=0;orthogonalLoop=1;jettySize=auto;html=1;exitX=0;exitY=0.5;exitDx=0;exitDy=0;entryX=1;entryY=0.5;entryDx=0;entryDy=0;" parent="1" source="cseGOAcBCH44NVd2no2V-27" target="cseGOAcBCH44NVd2no2V-25" edge="1">
          <mxGeometry relative="1" as="geometry" />
        </mxCell>
        <mxCell id="cseGOAcBCH44NVd2no2V-27" value="&lt;p style=&quot;margin: 0px; font-style: normal; font-variant-caps: normal; font-stretch: normal; font-size: 13px; line-height: normal; font-family: &amp;quot;Helvetica Neue&amp;quot;; font-size-adjust: none; font-kerning: auto; font-variant-alternates: normal; font-variant-ligatures: normal; font-variant-numeric: normal; font-variant-east-asian: normal; font-variant-position: normal; font-variant-emoji: normal; font-feature-settings: normal; font-optical-sizing: auto; font-variation-settings: normal;&quot;&gt;В 965 году Святослав сокрушил Хазарский каганат.&amp;nbsp;&lt;/p&gt;&lt;p style=&quot;margin: 0px; font-style: normal; font-variant-caps: normal; font-stretch: normal; font-size: 13px; line-height: normal; font-family: &amp;quot;Helvetica Neue&amp;quot;; font-size-adjust: none; font-kerning: auto; font-variant-alternates: normal; font-variant-ligatures: normal; font-variant-numeric: normal; font-variant-east-asian: normal; font-variant-position: normal; font-variant-emoji: normal; font-feature-settings: normal; font-optical-sizing: auto; font-variation-settings: normal;&quot;&gt;В 967 году Святослав заключил договор с Византией против Дунайской Болгарии.&lt;/p&gt;&lt;p style=&quot;margin: 0px; font-style: normal; font-variant-caps: normal; font-stretch: normal; font-size: 13px; line-height: normal; font-family: &amp;quot;Helvetica Neue&amp;quot;; font-size-adjust: none; font-kerning: auto; font-variant-alternates: normal; font-variant-ligatures: normal; font-variant-numeric: normal; font-variant-east-asian: normal; font-variant-position: normal; font-variant-emoji: normal; font-feature-settings: normal; font-optical-sizing: auto; font-variation-settings: normal;&quot;&gt;Тем временем печенеги, набравшие силу после разгрома Хазарского каганата, напали на&amp;nbsp;Киев. Князь забрал дружину и бросился на защиту Киева. Печенеги отступили, а вскоре Ольга умерла от болезни. Едва похоронив мать, Святослав вернулся в&amp;nbsp;Болгарию, а позже пошел войной против Византии, которая не сдержала своих союзнических обещаний.&lt;/p&gt;&lt;p style=&quot;margin: 0px; font-style: normal; font-variant-caps: normal; font-stretch: normal; font-size: 13px; line-height: normal; font-family: &amp;quot;Helvetica Neue&amp;quot;; font-size-adjust: none; font-kerning: auto; font-variant-alternates: normal; font-variant-ligatures: normal; font-variant-numeric: normal; font-variant-east-asian: normal; font-variant-position: normal; font-variant-emoji: normal; font-feature-settings: normal; font-optical-sizing: auto; font-variation-settings: normal;&quot;&gt;Византийская кампания не принесла Святославу успеха – в&amp;nbsp;972&amp;nbsp;году он потерпел поражение и вынужден был заключить невыгодный для Руси договор. На обратном пути дружина Святослава и он сам пали в неравном бою с печенегами на днепровских порогах.&amp;nbsp;&lt;/p&gt;" style="rounded=1;whiteSpace=wrap;html=1;" parent="1" vertex="1">
          <mxGeometry x="660" y="820" width="480" height="230" as="geometry" />
        </mxCell>
        <mxCell id="EYzyI61vK4qVUXCELYnc-1" value="Ярополк, сын Святослава&lt;div&gt;(киевский престол)&lt;/div&gt;" style="rounded=1;whiteSpace=wrap;html=1;" vertex="1" parent="1">
          <mxGeometry x="440" y="1120" width="140" height="60" as="geometry" />
        </mxCell>
        <mxCell id="EYzyI61vK4qVUXCELYnc-2" value="Владимир, сын Святослава&lt;div&gt;(новгородский престол&lt;span style=&quot;background-color: transparent; color: light-dark(rgb(0, 0, 0), rgb(255, 255, 255));&quot;&gt;)&lt;/span&gt;&lt;/div&gt;&lt;div&gt;&lt;span style=&quot;background-color: transparent; color: light-dark(rgb(0, 0, 0), rgb(255, 255, 255));&quot;&gt;Красное солнышко&lt;/span&gt;&lt;/div&gt;" style="rounded=1;whiteSpace=wrap;html=1;" vertex="1" parent="1">
          <mxGeometry x="200" y="1120" width="140" height="60" as="geometry" />
        </mxCell>
        <mxCell id="EYzyI61vK4qVUXCELYnc-3" value="Олег, сын Святослава&lt;div&gt;(древлянские земли)&lt;/div&gt;" style="rounded=1;whiteSpace=wrap;html=1;" vertex="1" parent="1">
          <mxGeometry x="680" y="1120" width="140" height="60" as="geometry" />
        </mxCell>
        <mxCell id="EYzyI61vK4qVUXCELYnc-7" value="" style="rounded=0;whiteSpace=wrap;html=1;fillColor=#d5e8d4;strokeColor=#82b366;opacity=40;" vertex="1" parent="1">
          <mxGeometry x="165" y="1070" width="690" height="140" as="geometry" />
        </mxCell>
        <mxCell id="EYzyI61vK4qVUXCELYnc-10" style="edgeStyle=orthogonalEdgeStyle;rounded=0;orthogonalLoop=1;jettySize=auto;html=1;entryX=1;entryY=0.5;entryDx=0;entryDy=0;" edge="1" parent="1" source="EYzyI61vK4qVUXCELYnc-9" target="EYzyI61vK4qVUXCELYnc-7">
          <mxGeometry relative="1" as="geometry" />
        </mxCell>
        <mxCell id="EYzyI61vK4qVUXCELYnc-9" value="&lt;p style=&quot;margin: 0px; font-variant-numeric: normal; font-variant-east-asian: normal; font-variant-alternates: normal; font-size-adjust: none; font-kerning: auto; font-optical-sizing: auto; font-feature-settings: normal; font-variation-settings: normal; font-variant-position: normal; font-variant-emoji: normal; font-stretch: normal; font-size: 13px; line-height: normal; font-family: &amp;quot;Helvetica Neue&amp;quot;;&quot; class=&quot;p1&quot;&gt;В&amp;nbsp;977&amp;nbsp;году Ярополк решил, что киевского стола ему мало, и двинулся в поход на братьев. Древлянский князь Олег погиб в бою, а&amp;nbsp;Владимир предусмотрительно оставил город и сбежал к варягам. Там он попросил помощи, набрал дружину и через два года вернулся. Победным маршем он прошел от&amp;nbsp;Новгорода до&amp;nbsp;Киева, обманом заманил Ярополка на переговоры, убил его и взошел на престол.&lt;/p&gt;" style="rounded=1;whiteSpace=wrap;html=1;align=center;" vertex="1" parent="1">
          <mxGeometry x="900" y="1090" width="440" height="140" as="geometry" />
        </mxCell>
        <mxCell id="EYzyI61vK4qVUXCELYnc-12" style="edgeStyle=orthogonalEdgeStyle;rounded=0;orthogonalLoop=1;jettySize=auto;html=1;entryX=0;entryY=0.5;entryDx=0;entryDy=0;" edge="1" parent="1" source="EYzyI61vK4qVUXCELYnc-11" target="EYzyI61vK4qVUXCELYnc-2">
          <mxGeometry relative="1" as="geometry">
            <Array as="points">
              <mxPoint x="-60" y="1150" />
            </Array>
          </mxGeometry>
        </mxCell>
        <mxCell id="EYzyI61vK4qVUXCELYnc-11" value="&lt;p style=&quot;margin: 0px; font-stretch: normal; line-height: normal; font-size-adjust: none; font-kerning: auto; font-variant-alternates: normal; font-variant-numeric: normal; font-variant-east-asian: normal; font-variant-position: normal; font-variant-emoji: normal; font-feature-settings: normal; font-optical-sizing: auto; font-variation-settings: normal;&quot;&gt;&lt;font face=&quot;Helvetica Neue&quot;&gt;&lt;span style=&quot;font-size: 13px;&quot;&gt;Владимир создал совет из военачальников и старейшин для решения важных государственных вопросов, первым начал печатать золотые и серебряные монеты по образцу византийских. Для защиты от нападений степняков князь приказал построить военные укрепления и несколько раз ходил походами на печенегов.&lt;/span&gt;&lt;/font&gt;&lt;/p&gt;&lt;div&gt;Именно Владимир Красное солнышко является прототипом князя с тремя богатырями.&amp;nbsp;&lt;/div&gt;&lt;div&gt;В 988 году Владимир крестил всю Русь.&amp;nbsp;&lt;/div&gt;&lt;div&gt;&lt;p style=&quot;margin: 0px; font-variant-numeric: normal; font-variant-east-asian: normal; font-variant-alternates: normal; font-size-adjust: none; font-kerning: auto; font-optical-sizing: auto; font-feature-settings: normal; font-variation-settings: normal; font-variant-position: normal; font-variant-emoji: normal; font-stretch: normal; font-size: 13px; line-height: normal; font-family: &amp;quot;Helvetica Neue&amp;quot;;&quot; class=&quot;p1&quot;&gt;Принятие христианства сыграло большую роль в культурно-экономическом и политическом развитии Киевской Руси. Молодое государство наконец-то было признано в&amp;nbsp;Европе как полноправная политическая единица. На основе христианства начала формироваться русская культура: первыми литературными произведениями были жития святых, первыми живописными памятниками – иконы, а первыми произведениями зодчества – церкви, построенные по образцу византийских, например Десятинный собор в&amp;nbsp;Киеве.&lt;/p&gt;&lt;/div&gt;" style="rounded=1;whiteSpace=wrap;html=1;align=center;" vertex="1" parent="1">
          <mxGeometry x="-325" y="770" width="530" height="220" as="geometry" />
        </mxCell>
      </root>
    </mxGraphModel>
  </diagram>
</mxfile>
